nColumns=19
nRows=68
DataType=double
version=3
OpenSimVersion=4.1
endheader
time	ground_force_calcn_l_vx	ground_force_calcn_l_vy	ground_force_calcn_l_vz	ground_force_calcn_l_px	ground_force_calcn_l_py	ground_force_calcn_l_pz	ground_force_calcn_l_mx	ground_force_calcn_l_my	ground_force_calcn_l_mz	ground_force_calcn_r_vx	ground_force_calcn_r_vy	ground_force_calcn_r_vz	ground_force_calcn_r_px	ground_force_calcn_r_py	ground_force_calcn_r_pz	ground_force_calcn_r_mx	ground_force_calcn_r_my	ground_force_calcn_r_mz
0	0	0	0	0	0.0335434	0	0	0	0	0	0	0	0	0.0347001	0	0	0	0
0.00997596	5.04037	337.827	-38.4517	-0.313843	-3.45406e-17	0.195977	-0.120822	-8.09801	0.921722	-2.40864	302.681	35.0679	-0.292752	-3.23242e-17	-0.1925	-0.0333077	4.1856	0.484935
0.0199519	3.54365	339.018	-39.3407	-0.312742	-3.44023e-17	0.196006	-0.0877496	-8.39492	0.974174	-3.39358	309.163	37.3382	-0.291573	-3.21826e-17	-0.193846	-0.0477188	4.34729	0.525032
0.0299279	2.14684	339.957	-40.2437	-0.311716	-3.42714e-17	0.196055	-0.0548816	-8.69062	1.02879	-4.34635	315.424	39.5322	-0.290454	-3.20485e-17	-0.195107	-0.0619719	4.49744	0.563665
0.0399038	0.909361	340.556	-41.1681	-0.310813	-3.41534e-17	0.196136	-0.0239702	-8.97687	1.08517	-5.28286	321.284	41.588	-0.289409	-3.19225e-17	-0.196293	-0.0766231	4.65993	0.603195
0.0498798	-0.072272	340.807	-42.1026	-0.310042	-3.40487e-17	0.196308	0.00196501	-9.26623	1.14473	-6.17885	326.515	43.4562	-0.288429	-3.18032e-17	-0.197397	-0.0914824	4.8343	0.643401
0.0598558	-0.758996	340.751	-43.0582	-0.309402	-3.39573e-17	0.196562	0.0212748	-9.55132	1.20693	-6.97125	330.884	45.1101	-0.287524	-3.1693e-17	-0.198394	-0.105313	4.99857	0.681465
0.0698317	-1.16836	340.475	-44.0234	-0.308878	-3.38777e-17	0.19688	0.0337426	-9.83307	1.27141	-7.65605	334.215	46.511	-0.286765	-3.15984e-17	-0.199296	-0.118399	5.16857	0.719282
0.0798077	-1.36205	340.089	-44.9839	-0.308469	-3.38108e-17	0.197227	0.0404568	-10.1017	1.33616	-8.21618	336.48	47.652	-0.286145	-3.15181e-17	-0.200115	-0.130835	5.35812	0.758812
0.0897837	-1.40111	339.658	-45.9148	-0.30813	-3.3752e-17	0.197568	0.0426902	-10.3489	1.39897	-8.62541	337.78	48.5547	-0.285624	-3.14492e-17	-0.200836	-0.141333	5.53474	0.795599
0.0997596	-1.36571	339.187	-46.7693	-0.307811	-3.36965e-17	0.197882	0.0425925	-10.5782	1.45859	-8.91725	338.297	49.2319	-0.28515	-3.13855e-17	-0.201462	-0.15035	5.7039	0.83008
0.109736	-1.30161	338.652	-47.5258	-0.307544	-3.36485e-17	0.19814	0.041414	-10.7751	1.51215	-9.16898	338.267	49.7171	-0.284684	-3.13234e-17	-0.201991	-0.158957	5.86434	0.861917
0.119712	-1.17869	338.042	-48.1646	-0.30736	-3.36123e-17	0.198366	0.038115	-10.9312	1.55748	-9.41458	337.932	50.034	-0.284203	-3.1261e-17	-0.202418	-0.167188	6.00113	0.888523
0.129688	-0.973286	337.365	-48.671	-0.307226	-3.3584e-17	0.198589	0.0318967	-11.0562	1.59506	-9.68374	337.53	50.2028	-0.283677	-3.11955e-17	-0.202733	-0.175362	6.11228	0.909116
0.139663	-0.691695	336.659	-49.0327	-0.307076	-3.35559e-17	0.198833	0.0229432	-11.1668	1.62639	-10.0091	337.253	50.2703	-0.283065	-3.11222e-17	-0.202936	-0.184092	6.20292	0.924595
0.149639	-0.341558	336.007	-49.2353	-0.306907	-3.35273e-17	0.199126	0.011467	-11.2806	1.65296	-10.3647	337.225	50.2804	-0.28236	-3.10404e-17	-0.203031	-0.192726	6.27051	0.934938
0.159615	0.0350813	335.531	-49.2852	-0.306775	-3.3505e-17	0.199454	-0.00119169	-11.3978	1.67419	-10.7366	337.456	50.2595	-0.281616	-3.09571e-17	-0.203027	-0.200341	6.29683	0.937828
0.169591	0.364049	335.36	-49.2028	-0.306703	-3.34914e-17	0.199787	-0.0125049	-11.5195	1.69009	-11.147	337.811	50.207	-0.28088	-3.08769e-17	-0.202952	-0.207461	6.28712	0.93442
0.179567	0.593942	335.577	-49.012	-0.306619	-3.34789e-17	0.200112	-0.0206086	-11.6438	1.70062	-11.5846	338.082	50.1047	-0.280157	-3.07997e-17	-0.20282	-0.214005	6.24545	0.925594
0.189543	0.67201	336.16	-48.7448	-0.306448	-3.34595e-17	0.200409	-0.0235041	-11.7575	1.70489	-11.9881	338.078	49.9444	-0.279423	-3.07232e-17	-0.202627	-0.218512	6.16225	0.910352
0.199519	0.56576	336.912	-48.416	-0.306266	-3.34406e-17	0.200681	-0.0199173	-11.8608	1.70446	-12.3661	337.632	49.7044	-0.278696	-3.06485e-17	-0.202396	-0.221661	6.052	0.890943
0.209495	0.279535	337.533	-48.0485	-0.306211	-3.34369e-17	0.200925	-0.00989265	-11.9452	1.70042	-12.7328	336.615	49.3629	-0.278005	-3.05777e-17	-0.202134	-0.224507	5.93524	0.870373
0.219471	-0.114641	337.754	-47.6854	-0.306354	-3.34548e-17	0.201158	0.00407632	-12.0096	1.69556	-13.0732	334.981	48.9203	-0.277373	-3.05136e-17	-0.201831	-0.226596	5.80617	0.847928
0.229447	-0.548267	337.418	-47.3526	-0.306709	-3.34945e-17	0.201414	0.0196003	-12.0626	1.69284	-13.3799	332.866	48.3674	-0.276798	-3.04554e-17	-0.201497	-0.22836	5.68117	0.825509
0.239423	-0.9525	336.482	-47.0753	-0.307255	-3.35538e-17	0.201699	0.0342388	-12.0953	1.69218	-13.67	330.533	47.7028	-0.276274	-3.04021e-17	-0.201147	-0.230793	5.58047	0.805378
0.249399	-1.25172	335.007	-46.8651	-0.308007	-3.36348e-17	0.202005	0.0452009	-12.0974	1.69234	-13.9364	328.242	46.9396	-0.27579	-3.0352e-17	-0.200792	-0.234167	5.51532	0.788707
0.259375	-1.4285	333.194	-46.7198	-0.308962	-3.3737e-17	0.202341	0.0518154	-12.0858	1.69465	-14.194	326.108	46.1127	-0.275382	-3.03103e-17	-0.200424	-0.238058	5.46939	0.77339
0.269351	-1.50495	331.369	-46.6388	-0.310023	-3.38496e-17	0.202719	0.0548816	-12.0842	1.7008	-14.4808	324.154	45.2772	-0.275098	-3.0282e-17	-0.200057	-0.24279	5.43486	0.75913
0.279327	-1.4843	329.883	-46.6375	-0.311031	-3.39558e-17	0.203138	0.0544309	-12.0972	1.71024	-14.7825	322.381	44.4598	-0.27492	-3.02649e-17	-0.199714	-0.248491	5.41916	0.74736
0.289303	-1.39496	329.003	-46.743	-0.311935	-3.40509e-17	0.203559	0.0513707	-12.1159	1.72136	-15.0817	320.784	43.6754	-0.274823	-3.02559e-17	-0.199414	-0.25503	5.42442	0.738546
0.299279	-1.31009	328.842	-46.9546	-0.312753	-3.41368e-17	0.203942	0.0484062	-12.1503	1.73492	-15.3788	319.347	42.9462	-0.274809	-3.02548e-17	-0.199161	-0.262781	5.45674	0.733831
0.309255	-1.24006	329.367	-47.2279	-0.313459	-3.42109e-17	0.2043	0.0459624	-12.2079	1.75048	-15.6626	318.072	42.3168	-0.274866	-3.02607e-17	-0.198933	-0.271079	5.505	0.732394
0.319231	-1.16284	330.461	-47.5357	-0.314054	-3.42741e-17	0.204638	0.0431694	-12.268	1.76472	-15.8885	317.024	41.8292	-0.27493	-3.02662e-17	-0.198703	-0.279008	5.56706	0.734536
0.329207	-1.03694	331.991	-47.851	-0.314583	-3.43309e-17	0.204988	0.0385395	-12.3389	1.77846	-16.0623	316.316	41.4861	-0.274948	-3.02651e-17	-0.198491	-0.28713	5.65448	0.741608
0.339183	-0.843187	333.852	-48.1547	-0.315103	-3.43879e-17	0.205359	0.0313582	-12.416	1.79088	-16.1765	316.031	41.2841	-0.274916	-3.02566e-17	-0.198311	-0.295857	5.78	0.755059
0.349159	-0.536429	336.033	-48.4164	-0.315585	-3.4442e-17	0.20577	0.0199509	-12.4977	1.80071	-16.2007	316.158	41.2252	-0.274839	-3.0242e-17	-0.198131	-0.303652	5.92579	0.77269
0.359135	-0.134922	338.543	-48.6085	-0.316008	-3.4491e-17	0.206242	0.00501933	-12.5944	1.80832	-16.1054	316.643	41.3006	-0.274713	-3.02209e-17	-0.197925	-0.30959	6.08674	0.793911
0.369111	0.318479	341.39	-48.7437	-0.316374	-3.45344e-17	0.20676	-0.011859	-12.7121	1.81504	-15.9066	317.437	41.4796	-0.274559	-3.01958e-17	-0.197704	-0.313974	6.26575	0.818749
0.379087	0.816004	344.577	-48.8431	-0.316697	-3.4574e-17	0.207292	-0.0304022	-12.8381	1.81977	-15.5969	318.502	41.7195	-0.274368	-3.01656e-17	-0.197466	-0.316825	6.46982	0.847458
0.389063	1.33541	348.093	-48.912	-0.316978	-3.46102e-17	0.207839	-0.0497657	-12.9721	1.82276	-15.181	319.79	41.9895	-0.27418	-3.01352e-17	-0.197209	-0.317572	6.68973	0.878383
0.399038	1.81922	351.852	-48.9492	-0.317219	-3.46423e-17	0.208383	-0.0678585	-13.1244	1.82584	-14.6931	321.275	42.2691	-0.27404	-3.01104e-17	-0.196942	-0.316001	6.90958	0.909071
0.409014	2.24809	355.729	-48.9508	-0.317451	-3.46734e-17	0.208897	-0.0839812	-13.2888	1.82864	-14.1397	322.955	42.5338	-0.273914	-3.00875e-17	-0.196666	-0.312365	7.1345	0.939627
0.41899	2.63923	359.636	-48.9382	-0.317696	-3.47063e-17	0.209372	-0.098711	-13.4509	1.83036	-13.547	324.808	42.7501	-0.273793	-3.00658e-17	-0.196403	-0.307211	7.36579	0.96946
0.428966	2.96117	363.533	-48.9369	-0.317931	-3.4738e-17	0.209791	-0.110853	-13.6091	1.83198	-12.9504	326.774	42.8774	-0.273749	-3.00531e-17	-0.196176	-0.301495	7.60754	0.998217
0.438942	3.20836	367.366	-48.948	-0.318131	-3.47651e-17	0.210167	-0.120287	-13.7732	1.83515	-12.3854	328.718	42.9039	-0.273865	-3.00591e-17	-0.195992	-0.295749	7.84944	1.0245
0.448918	3.38707	371.075	-48.9766	-0.318332	-3.47919e-17	0.210493	-0.127143	-13.9293	1.83847	-11.8391	330.499	42.8594	-0.274146	-3.00843e-17	-0.195845	-0.289462	8.08055	1.04789
0.458894	3.4931	374.638	-49.0306	-0.318571	-3.48223e-17	0.210777	-0.131297	-14.0817	1.84294	-11.3136	332.043	42.7454	-0.274624	-3.01318e-17	-0.195757	-0.28303	8.30667	1.06935
0.46887	3.50541	378.072	-49.1249	-0.318849	-3.48565e-17	0.211021	-0.131918	-14.2278	1.8487	-10.8105	333.287	42.5746	-0.275378	-3.02098e-17	-0.195747	-0.276892	8.53654	1.09047
0.478846	3.43534	381.374	-49.2809	-0.319142	-3.48915e-17	0.211232	-0.129404	-14.3658	1.85634	-10.312	334.146	42.3695	-0.276405	-3.03179e-17	-0.195803	-0.270444	8.7634	1.11119
0.488822	3.28975	384.53	-49.5048	-0.319421	-3.49237e-17	0.211425	-0.124107	-14.5065	1.86758	-9.80713	334.55	42.1708	-0.277641	-3.04487e-17	-0.195938	-0.263264	8.98071	1.13204
0.498798	3.05367	387.535	-49.797	-0.319702	-3.49545e-17	0.211607	-0.115495	-14.6573	1.88341	-9.31419	334.5	41.9953	-0.279042	-3.05971e-17	-0.196166	-0.25575	9.18474	1.15311
0.508774	2.77935	390.414	-50.1495	-0.319985	-3.49843e-17	0.2118	-0.105474	-14.8159	1.90313	-8.85414	334.037	41.8498	-0.280578	-3.07601e-17	-0.196476	-0.24852	9.37582	1.17465
0.51875	2.54102	393.182	-50.5409	-0.320249	-3.50114e-17	0.212024	-0.0967637	-14.9726	1.92463	-8.44188	333.231	41.7583	-0.28217	-3.09284e-17	-0.196858	-0.241945	9.55043	1.19679
0.528726	2.37331	395.838	-50.9504	-0.320484	-3.50343e-17	0.212281	-0.0907789	-15.1408	1.94885	-8.10682	332.21	41.7421	-0.283691	-3.10883e-17	-0.197304	-0.236952	9.71006	1.22007
0.538702	2.29229	398.367	-51.3379	-0.320718	-3.50565e-17	0.212583	-0.0881633	-15.3215	1.9745	-7.84927	331.121	41.8177	-0.285078	-3.12324e-17	-0.19781	-0.233774	9.86174	1.24545
0.548678	2.32619	400.729	-51.6642	-0.320948	-3.50786e-17	0.212941	-0.0899987	-15.5039	1.99886	-7.6626	330.121	42.0005	-0.286326	-3.1361e-17	-0.19833	-0.231949	9.99285	1.27137
0.558654	2.44615	402.815	-51.9234	-0.321182	-3.51014e-17	0.21332	-0.0952068	-15.678	2.02091	-7.55579	329.357	42.2643	-0.287408	-3.14711e-17	-0.198834	-0.232066	10.1158	1.29809
0.56863	2.61632	404.514	-52.1112	-0.321442	-3.51273e-17	0.213694	-0.102417	-15.8349	2.03992	-7.52778	328.954	42.5616	-0.28824	-3.15544e-17	-0.199297	-0.234062	10.2282	1.32337
0.578606	2.81666	405.769	-52.2357	-0.321731	-3.51572e-17	0.214047	-0.110781	-15.9591	2.05445	-7.53647	328.972	42.8723	-0.288793	-3.16087e-17	-0.19968	-0.236361	10.3173	1.34458
0.588582	3.01388	406.58	-52.2953	-0.322053	-3.51914e-17	0.214378	-0.118975	-16.05	2.0644	-7.56976	329.405	43.1752	-0.289163	-3.16448e-17	-0.19997	-0.23863	10.3842	1.36106
0.598558	3.16187	406.971	-52.2873	-0.322448	-3.5234e-17	0.214682	-0.12523	-16.1186	2.0709	-7.61784	330.208	43.4459	-0.28939	-3.1667e-17	-0.200153	-0.240793	10.4376	1.37328
0.608534	3.25853	407.003	-52.2216	-0.322913	-3.52848e-17	0.214971	-0.129409	-16.1637	2.07392	-7.65252	331.315	43.6775	-0.289426	-3.16698e-17	-0.200235	-0.242061	10.48	1.38159
0.61851	3.30682	406.766	-52.1083	-0.323365	-3.53348e-17	0.215256	-0.131577	-16.185	2.07336	-7.67054	332.669	43.8685	-0.289234	-3.16485e-17	-0.200236	-0.242534	10.5186	1.38707
0.628486	3.29259	406.341	-51.9381	-0.323787	-3.53822e-17	0.215547	-0.131191	-16.1904	2.06944	-7.68736	334.146	44.0145	-0.288862	-3.16076e-17	-0.200173	-0.243112	10.5673	1.39195
0.638462	3.23805	405.764	-51.708	-0.324237	-3.54332e-17	0.215853	-0.12914	-16.1826	2.06222	-7.68536	335.594	44.1138	-0.288365	-3.15533e-17	-0.200046	-0.243112	10.6159	1.39546
0.648438	3.16717	405.048	-51.4276	-0.324751	-3.5492e-17	0.216176	-0.126404	-16.1658	2.05251	-7.62085	336.883	44.1653	-0.287758	-3.14871e-17	-0.199867	-0.241059	10.6561	1.39701
0.658413	3.09312	404.207	-51.0989	-0.325287	-3.55535e-17	0.216533	-0.123545	-16.1447	2.04098	-7.52167	337.904	44.1652	-0.287089	-3.14145e-17	-0.199672	-0.237848	10.6851	1.39658
0.668389	3.01052	403.213	-50.7356	-0.325812	-3.56136e-17	0.216925	-0.120416	-16.1279	2.02934	-7.39055	338.58	44.1027	-0.286415	-3.13415e-17	-0.199458	-0.233518	10.6981	1.39351
